HIERARCHY
ROOT Hips
{
	OFFSET	0.00	0.00	0.00
	CHANNELS 6 Xposition Yposition Zposition Zrotation Xrotation Yrotation
	JOINT LeftUpLeg
	{
		OFFSET	 0.126116	-0.065224	 0.014019
		CHANNELS 3 Zrotation Xrotation Yrotation
		JOINT LeftLeg
		{
			OFFSET	 0.000000	 0.569914	 0.000000
			CHANNELS 3 Zrotation Xrotation Yrotation
			JOINT LeftFoot
			{
				OFFSET	 0.000000	 0.544423	 0.000000
				CHANNELS 3 Zrotation Xrotation Yrotation
				JOINT LeftToeBase
				{
					OFFSET	 0.000000	 0.207117	 0.000000
					CHANNELS 3 Zrotation Xrotation Yrotation
					End Site
					{
						OFFSET	 0.000000	 0.207117	 0.000000
					}
				}
			}
		}
	}
	JOINT RightUpLeg
	{
		OFFSET	-0.124023	-0.065224	 0.008373
		CHANNELS 3 Zrotation Xrotation Yrotation
		JOINT RightLeg
		{
			OFFSET	 0.000000	 0.570047	 0.000000
			CHANNELS 3 Zrotation Xrotation Yrotation
			JOINT RightFoot
			{
				OFFSET	 0.000000	 0.544354	 0.000000
				CHANNELS 3 Zrotation Xrotation Yrotation
				JOINT RightToeBase
				{
					OFFSET	 0.000000	 0.207540	 0.000000
					CHANNELS 3 Zrotation Xrotation Yrotation
					End Site
					{
						OFFSET	 0.000000	 0.207540	 0.000000
					}
				}
			}
		}
	}
	JOINT Spine
	{
		OFFSET	 0.000184	 0.117403	 0.007763
		CHANNELS 3 Zrotation Xrotation Yrotation
		JOINT Spine1
		{
			OFFSET	 0.000000	 0.137269	 0.000000
			CHANNELS 3 Zrotation Xrotation Yrotation
			JOINT Spine2
			{
				OFFSET	 0.000000	 0.156879	 0.000000
				CHANNELS 3 Zrotation Xrotation Yrotation
				JOINT LeftShoulder
				{
					OFFSET	 0.080501	 0.160143	 0.002496
					CHANNELS 3 Zrotation Xrotation Yrotation
					JOINT LeftArm
					{
						OFFSET	 0.000000	 0.164363	 0.000000
						CHANNELS 3 Zrotation Xrotation Yrotation
						JOINT LeftForeArm
						{
							OFFSET	 0.000000	 0.364576	 0.000000
							CHANNELS 3 Zrotation Xrotation Yrotation
							JOINT LeftHand
							{
								OFFSET	 0.000000	 0.360812	 0.000000
								CHANNELS 3 Zrotation Xrotation Yrotation
								JOINT LeftHandIndex1
								{
									OFFSET	 0.000000	 0.086006	 0.000000
									CHANNELS 3 Zrotation Xrotation Yrotation
									JOINT LeftHandIndex2
									{
										OFFSET	 0.000000	 0.047237	 0.000000
										CHANNELS 3 Zrotation Xrotation Yrotation
										JOINT LeftHandIndex3
										{
											OFFSET	-0.004284	 0.038165	 0.000551
											CHANNELS 3 Zrotation Xrotation Yrotation
											End Site
											{
												OFFSET	-0.004284	 0.038165	 0.000551
											}
										}
									}
								}
							}
						}
					}
				}
				JOINT Neck
				{
					OFFSET	 0.000000	 0.176489	 0.000000
					CHANNELS 3 Zrotation Xrotation Yrotation
					JOINT Head
					{
						OFFSET	 0.000000	 0.077941	 0.001747
						CHANNELS 3 Zrotation Xrotation Yrotation
						End Site
						{
							OFFSET	 0.000000	 0.077941	 0.001747
						}
					}
				}
				JOINT RightShoulder
				{
					OFFSET	-0.080363	 0.159706	-0.000306
					CHANNELS 3 Zrotation Xrotation Yrotation
					JOINT RightArm
					{
						OFFSET	 0.000000	 0.164196	 0.000000
						CHANNELS 3 Zrotation Xrotation Yrotation
						JOINT RightForeArm
						{
							OFFSET	 0.000000	 0.365611	 0.000000
							CHANNELS 3 Zrotation Xrotation Yrotation
							JOINT RightHand
							{
								OFFSET	 0.000000	 0.360648	 0.000000
								CHANNELS 3 Zrotation Xrotation Yrotation
								JOINT RightHandIndex1
								{
									OFFSET	 0.000000	 0.069977	 0.000000
									CHANNELS 3 Zrotation Xrotation Yrotation
									JOINT RightHandIndex2
									{
										OFFSET	 0.000000	 0.052305	 0.000000
										CHANNELS 3 Zrotation Xrotation Yrotation
										JOINT RightHandIndex3
										{
											OFFSET	 0.009002	 0.042196	 0.000782
											CHANNELS 3 Zrotation Xrotation Yrotation
											End Site
											{
												OFFSET	 0.009002	 0.042196	 0.000782
											}
										}
									}
								}
							}
						}
					}
				}
			}
		}
	}
}
MOTION
Frames:    4
Frame Time: 0.03333334
-0.003341	 1.232312	 0.001497	 1.216269	 0.329884	 172.230300	-161.003900	 12.926180	-27.469350	 5.548759	-20.022610	 3.012479	-12.132070	 63.099040	 4.316035	 1.161912	 26.687710	-2.659613	 173.011700	 10.589560	 18.828460	-2.621246	-31.132330	 7.711256	 14.100770	 78.478600	-10.057970	-1.288884	 28.371050	 2.710472	 2.505416	 6.604338	 7.950678	-4.396913	 2.771484	 4.241251	 6.789875	-2.060014	-9.567157	-113.147800	 6.490590	 92.940030	 44.575630	 27.984780	-9.538470	 4.271208	-0.217276	-0.265939	 12.066460	 21.181370	 21.554760	 0.598216	 8.537387	-0.355553	-5.949152	 13.603660	 1.520748	 4.987840	-3.472301	-0.333731	 3.184477	-6.826674	 0.878805	-1.215958	-5.707760	 0.918966	 123.427200	 10.378770	-96.380090	-7.642170	 38.123070	-1.390705	-5.179521	-0.200877	 0.239682	 3.875957	-6.926567	 1.490924	-2.321136	 4.887161	 0.895725	 12.538400	 22.903140	-5.160562	-8.500692	 13.105500	-0.525706
-0.001893	 1.230698	-0.011515	 1.195056	 0.287456	 172.014900	-160.693500	 13.204120	-28.572000	 5.866218	-21.001950	 3.081501	-12.449720	 63.595180	 4.698213	 1.161725	 26.685180	-2.659539	 172.759100	 10.051850	 19.466540	-2.647491	-31.412110	 7.610471	 14.881620	 79.147320	-10.545210	-1.288705	 28.368690	 2.710396	 2.612128	 6.572327	 7.478424	-4.470867	 2.740555	 4.271338	 6.831972	-2.077592	-9.519712	-113.066200	 6.502063	 92.948620	 44.497200	 27.967810	-9.426437	 4.389346	-0.217315	-0.591087	 12.363240	 21.071730	 20.923210	 0.661563	 8.340835	-0.355092	-5.948347	 13.647810	 1.525483	 4.991035	-3.402120	-0.332039	 3.182162	-6.828397	 0.892138	-1.217037	-5.745976	 1.021662	 123.372500	 10.387680	-96.374380	-7.540911	 37.989340	-1.370681	-5.295734	-0.200834	 0.565009	 3.742338	-7.117466	 2.171500	-2.344041	 4.958903	 0.894820	 12.552160	 23.092390	-5.206311	-8.502048	 13.260410	-0.535486
-0.000365	 1.229101	-0.024058	 1.169377	 0.236565	 171.752600	-160.376700	 13.424560	-29.652240	 6.140100	-21.888260	 3.076186	-12.793940	 64.046310	 5.112595	 1.161497	 26.682100	-2.659448	 172.520100	 9.536360	 20.050500	-2.669145	-31.652160	 7.493213	 15.561030	 79.766080	-10.938780	-1.288487	 28.365830	 2.710304	 2.741518	 6.531967	 6.898365	-4.548270	 2.704463	 4.301396	 6.877415	-2.098881	-9.462259	-112.967100	 6.515998	 92.959000	 44.432640	 27.964850	-9.313359	 4.533462	-0.217398	-0.986228	 12.692390	 20.914750	 20.158130	 0.738507	 8.101973	-0.354236	-5.947372	 13.701470	 1.531236	 4.994915	-3.316850	-0.329988	 3.179349	-6.830491	 0.908337	-1.218253	-5.792433	 1.146484	 123.306100	 10.398500	-96.367420	-7.440773	 37.861370	-1.335262	-5.437413	-0.200804	 0.960093	 3.596511	-7.388280	 2.987794	-2.371873	 5.046071	 0.893760	 12.569140	 23.322360	-5.262061	-8.503656	 13.448650	-0.547374
 0.001569	 1.227241	-0.038213	 1.134238	 0.167311	 171.391100	-160.001000	 13.610170	-30.947530	 6.426881	-22.804130	 3.039980	-13.227730	 64.518910	 5.635951	 1.161184	 26.677860	-2.659324	 172.256900	 8.961423	 20.673730	-2.689895	-31.894290	 7.336370	 16.211460	 80.438360	-11.266410	-1.288188	 28.361890	 2.710177	 2.919592	 6.473672	 6.089097	-4.634124	 2.658910	 4.332121	 6.930548	-2.129505	-9.383480	-112.830600	 6.535237	 92.973310	 44.376040	 27.975770	-9.182148	 4.732101	-0.217477	-1.530336	 13.112090	 20.674290	 19.098240	 0.844440	 7.772905	-0.352528	-5.946039	 13.775360	 1.539160	 5.000251	-3.199411	-0.327172	 3.175477	-6.833377	 0.930646	-1.219767	-5.856437	 1.318401	 123.214500	 10.413380	-96.357810	-7.326653	 37.714110	-1.275064	-5.633614	-0.200714	 1.504191	 3.411006	-7.798052	 4.093086	-2.410207	 5.166123	 0.892368	 12.592980	 23.639140	-5.339144	-8.505812	 13.707940	-0.563754
